<svg width="24" height="24" viewBox="0 0 24 24" fill="none" xmlns="http://www.w3.org/2000/svg">
<g clip-path="url(#clip0)">
<path d="M19.35 10.04C19.0141 8.33772 18.0976 6.80486 16.7571 5.70325C15.4165 4.60163 13.7351 3.99961 12 4C9.11 4 6.6 5.64 5.35 8.04C3.88023 8.19883 2.52101 8.89521 1.53349 9.99532C0.545971 11.0954 -0.000171702 12.5217 4.04928e-08 14C4.04928e-08 17.31 2.69 20 6 20H19C21.76 20 24 17.76 24 15C24 12.36 21.95 10.22 19.35 10.04ZM17 13L12 18L7 13H10V9H14V13H17Z" fill="black"/>
</g>
<defs>
<clipPath id="clip0">
<rect width="24" height="24" fill="white"/>
</clipPath>
</defs>
</svg>
